<svg width="38" height="38" viewBox="0 0 38 38" fill="none" xmlns="http://www.w3.org/2000/svg">
<path d="M34.0001 12.3333C34.8841 12.3333 35.732 12.6845 36.3571 13.3096C36.9822 13.9348 37.3334 14.7826 37.3334 15.6667V22.3333C37.3334 23.2174 36.9822 24.0652 36.3571 24.6904C35.732 25.3155 34.8841 25.6667 34.0001 25.6667H32.2301C31.8238 28.8888 30.2555 31.852 27.8197 34C25.3838 36.148 22.2478 37.3333 19.0001 37.3333V34C21.6522 34 24.1958 32.9464 26.0711 31.0711C27.9465 29.1957 29.0001 26.6522 29.0001 24V14C29.0001 11.3478 27.9465 8.80429 26.0711 6.92893C24.1958 5.05357 21.6522 4 19.0001 4C16.3479 4 13.8044 5.05357 11.929 6.92893C10.0536 8.80429 9.00008 11.3478 9.00008 14V25.6667H4.00008C3.11603 25.6667 2.26818 25.3155 1.64306 24.6904C1.01794 24.0652 0.666748 23.2174 0.666748 22.3333V15.6667C0.666748 14.7826 1.01794 13.9348 1.64306 13.3096C2.26818 12.6845 3.11603 12.3333 4.00008 12.3333H5.77008C6.1768 9.11149 7.74521 6.14878 10.181 4.00112C12.6169 1.85346 15.7527 0.668457 19.0001 0.668457C22.2475 0.668457 25.3833 1.85346 27.8191 4.00112C30.2549 6.14878 31.8234 9.11149 32.2301 12.3333H34.0001ZM11.9334 25.3083L13.7001 22.4817C15.2885 23.4767 17.1257 24.003 19.0001 24C20.8745 24.003 22.7116 23.4767 24.3001 22.4817L26.0667 25.3083C23.9488 26.6352 21.4993 27.3372 19.0001 27.3333C16.5008 27.3372 14.0513 26.6352 11.9334 25.3083Z" fill="#F9995D"/>
</svg>
