<svg width="41" height="40" viewBox="0 0 41 40" fill="none" xmlns="http://www.w3.org/2000/svg">
<g clip-path="url(#clip0_1221_5)">
<rect x="0.5" y="16.6667" width="23.3333" height="23.3333" fill="#7595FD"/>
<path d="M33 5C31.8952 5.00088 30.8359 5.44015 30.0547 6.22136C29.2735 7.00257 28.8342 8.06187 28.8333 9.16666C28.8333 9.76166 28.9633 10.3267 29.19 10.8417L25.9317 14.5067C24.8248 13.7426 23.5116 13.3334 22.1667 13.3333C20.9333 13.3333 19.7933 13.6933 18.8017 14.2767L15.0117 10.4883L14.9733 10.5267C15.3 9.86333 15.5 9.125 15.5 8.33333C15.5 7.34442 15.2068 6.37773 14.6573 5.55548C14.1079 4.73323 13.327 4.09237 12.4134 3.71393C11.4998 3.33549 10.4945 3.23648 9.52455 3.4294C8.55465 3.62233 7.66373 4.09853 6.96447 4.7978C6.26521 5.49706 5.789 6.38797 5.59608 7.35788C5.40315 8.32778 5.50217 9.33312 5.8806 10.2467C6.25904 11.1604 6.89991 11.9413 7.72215 12.4907C8.5444 13.0401 9.5111 13.3333 10.5 13.3333C11.2917 13.3333 12.0283 13.1333 12.6933 12.8067L12.655 12.845L16.445 16.6333C15.8327 17.65 15.5063 18.8132 15.5 20C15.5 21.6617 16.1333 23.165 17.1417 24.335L12.8467 28.6283C12.3653 28.4356 11.8518 28.3356 11.3333 28.3333C9.03667 28.3333 7.16667 30.2017 7.16667 32.5C7.16667 34.7983 9.03667 36.6667 11.3333 36.6667C13.63 36.6667 15.5 34.7983 15.5 32.5C15.5 31.965 15.39 31.4567 15.205 30.985L19.935 26.255C20.6367 26.505 21.38 26.6667 22.1667 26.6667C25.8433 26.6667 28.8333 23.6767 28.8333 20C28.8333 18.94 28.5617 17.9517 28.12 17.06L31.6483 13.0883C32.075 13.235 32.525 13.3333 33 13.3333C35.2983 13.3333 37.1667 11.465 37.1667 9.16666C37.1667 6.86833 35.2983 5 33 5ZM22.1667 23.3333C20.3283 23.3333 18.8333 21.8383 18.8333 20C18.8333 18.1617 20.3283 16.6667 22.1667 16.6667C24.005 16.6667 25.5 18.1617 25.5 20C25.5 21.8383 24.005 23.3333 22.1667 23.3333Z" fill="white"/>
</g>
<defs>
<clipPath id="clip0_1221_5">
<rect width="40" height="40" fill="white" transform="translate(0.5)"/>
</clipPath>
</defs>
</svg>
